<svg width="185" height="80" viewBox="0 0 185 80" fill="none" xmlns="http://www.w3.org/2000/svg">
<g clip-path="url(#clip0_563_2307)">
<path d="M20.6039 47.8558H-0.0090332L21.5414 1.13972H42.1544L20.6039 47.8558Z" fill="#00205C"/>
<path d="M92.0663 8.1202L90.6905 4.26513L89.3155 8.1202H92.0663ZM89.7506 0.977959H91.6134L97.0285 13.6962H94.399L93.0062 10.409H88.4444L87.0168 13.6962H84.3881L89.7506 0.977959Z" fill="#373534"/>
<path d="M98.143 6.19266H97.3246V4.16173H98.143C98.1948 2.35471 99.344 0.73719 101.294 0.73719L101.921 0.771585V3.04329C100.963 3.04329 100.528 3.11209 100.458 4.16173H101.799V6.19266H100.458V13.6962H98.143V6.19266Z" fill="#373534"/>
<path d="M103.314 4.16173H105.421V5.0223C105.96 4.21344 106.57 3.85194 107.528 3.85194H107.701V6.07217C107.232 6.07217 106.674 6.22706 106.291 6.51954C105.629 7.05301 105.612 7.75872 105.629 8.55028V13.6962H103.314V4.16173Z" fill="#373534"/>
<path d="M109.234 4.16462H111.549V13.6991H109.234V4.16462ZM109.234 0.980858H111.549V3.06328H109.234V0.980858Z" fill="#373534"/>
<path d="M122.936 10.5943C122.309 12.6252 120.273 14.0019 118.149 14.0019C116.843 14.0019 115.503 13.4682 114.563 12.5733C113.518 11.5924 112.996 10.2673 112.996 8.856C112.996 6.06815 115.329 3.84792 118.131 3.84792C120.255 3.84792 122.362 5.25906 122.936 7.32439H120.325C119.82 6.48112 119.09 6.08523 118.096 6.08523C116.443 6.08523 115.311 7.30708 115.311 8.89063C115.311 10.5771 116.53 11.7646 118.219 11.7646C119.072 11.7646 119.89 11.2999 120.325 10.5943H122.936Z" fill="#373534"/>
<path d="M129.343 6.08523C127.637 6.06814 126.453 7.34147 126.453 9.01093C126.453 10.5771 127.741 11.7817 129.308 11.7646C130.98 11.7817 132.129 10.5428 132.129 8.90769C132.129 7.30708 130.98 6.06814 129.343 6.08523ZM134.323 13.6921H132.198V12.4013C131.467 13.3823 130.109 14.0019 128.89 14.0019C127.393 14.0019 126.174 13.3823 125.339 12.4013C124.573 11.4892 124.137 10.2501 124.137 8.92505C124.137 7.5998 124.485 6.49842 125.373 5.50027C126.348 4.38161 127.55 3.84814 128.96 3.84814C130.283 3.84814 131.432 4.43309 132.198 5.50005V4.15771H134.323V13.6921Z" fill="#373534"/>
<path d="M84.7552 16.5404H91.3013V18.8295H87.1403V21.7552H91.1096V24.0439H87.1403V29.2587H84.7552V16.5404Z" fill="#373534"/>
<path d="M92.8672 19.7185H95.1826V29.2529H92.8672V19.7185ZM92.8672 16.5347H95.1826V18.6171H92.8672V16.5347Z" fill="#373534"/>
<path d="M97.0479 19.7242H99.1894V20.6021C99.7984 19.8106 100.843 19.4147 101.853 19.4147C102.862 19.4147 103.907 19.862 104.603 20.6021C104.691 20.688 104.777 20.7741 104.847 20.8775C105.596 21.9101 105.613 23.0973 105.613 24.3194V29.2587H103.298V24.767C103.298 24.0269 103.298 23.0802 102.897 22.4433C102.567 21.9444 101.957 21.6518 101.365 21.6518C100.738 21.6518 100.06 21.9788 99.7459 22.495C99.3285 23.149 99.3633 24.1817 99.3633 24.939V29.2587H97.0479V19.7242Z" fill="#373534"/>
<path d="M112.281 21.6506C110.574 21.6335 109.39 22.9069 109.39 24.5763C109.39 26.1426 110.678 27.3471 112.246 27.33C113.917 27.3471 115.066 26.1082 115.066 24.4731C115.066 22.8724 113.917 21.6335 112.281 21.6506ZM117.26 29.2575H115.136V27.9666C114.405 28.9478 113.047 29.5673 111.828 29.5673C110.331 29.5673 109.112 28.9478 108.276 27.9666C107.51 27.0546 107.074 25.8154 107.074 24.4904C107.074 23.1652 107.423 22.0638 108.311 21.0656C109.286 19.947 110.487 19.4135 111.897 19.4135C113.221 19.4135 114.37 19.9985 115.136 21.0654V19.7231H117.26V29.2575Z" fill="#373534"/>
<path d="M118.982 19.7242H121.124V20.6021C121.733 19.8106 122.778 19.4147 123.788 19.4147C124.797 19.4147 125.842 19.862 126.538 20.6021C126.625 20.688 126.712 20.7741 126.782 20.8775C127.531 21.9101 127.548 23.0973 127.548 24.3194V29.2587H125.232V24.767C125.232 24.0269 125.232 23.0802 124.832 22.4433C124.501 21.9444 123.892 21.6518 123.3 21.6518C122.673 21.6518 121.995 21.9788 121.681 22.495C121.263 23.149 121.298 24.1817 121.298 24.939V29.2587H118.982V19.7242Z" fill="#373534"/>
<path d="M138.955 26.1596C138.328 28.1905 136.291 29.5673 134.167 29.5673C132.862 29.5673 131.521 29.0336 130.581 28.1386C129.536 27.1578 129.014 25.8328 129.014 24.4214C129.014 21.6335 131.347 19.4133 134.149 19.4133C136.274 19.4133 138.38 20.8245 138.955 22.8898H136.343C135.839 22.0465 135.108 21.6506 134.115 21.6506C132.461 21.6506 131.33 22.8724 131.33 24.456C131.33 26.1426 132.548 27.33 134.237 27.33C135.09 27.33 135.908 26.8653 136.343 26.1596H138.955Z" fill="#373534"/>
<path d="M147.886 23.4749C147.504 22.339 146.442 21.6506 145.258 21.6506C144.109 21.6506 142.925 22.3736 142.577 23.4749H147.886ZM142.612 25.5056C142.96 26.607 143.986 27.33 145.153 27.33C146.024 27.33 146.859 27.0029 147.312 26.5038H149.871C149.279 28.2077 147.277 29.5673 145.241 29.5673C142.438 29.5673 140.157 27.33 140.157 24.559C140.157 21.7367 142.385 19.4133 145.276 19.4133C148.026 19.4133 150.219 21.754 150.219 24.4214C150.219 24.7829 150.15 25.1442 150.097 25.5056H142.612Z" fill="#373534"/>
<path d="M97.4274 41.3536C96.452 43.6598 93.9446 45.1226 91.455 45.1226C87.7636 45.1226 84.787 42.0767 84.787 38.4453C84.787 34.8485 87.7991 31.8541 91.3855 31.8541C93.9624 31.8541 96.5046 33.334 97.497 35.726H94.7809C93.9794 34.7624 92.6917 34.1428 91.4032 34.1428C89.052 34.1428 87.1722 36.1563 87.1722 38.5314C87.1722 40.7857 89.1216 42.8338 91.4203 42.8338C92.6917 42.8338 93.7885 42.2657 94.6588 41.3536H97.4274Z" fill="#373534"/>
<path d="M101.484 38.0838C100.944 38.6175 100.683 39.3056 100.683 40.0628C100.683 41.5944 101.884 42.8853 103.469 42.8853C105.105 42.8853 106.307 41.6634 106.307 40.0628C106.307 38.497 105.07 37.2061 103.469 37.2061C102.755 37.2061 101.971 37.5676 101.484 38.0838ZM108.623 40.0628C108.623 42.8853 106.307 45.1226 103.469 45.1226C100.683 45.1226 98.3673 42.8338 98.3673 40.0628C98.3673 37.2061 100.683 34.9688 103.573 34.9688C106.411 34.9688 108.623 37.2922 108.623 40.0628Z" fill="#373534"/>
<path d="M109.931 35.2783H112.038V36.1388C112.577 35.3298 113.186 34.9685 114.144 34.9685H114.318V37.1885C113.848 37.1885 113.291 37.3434 112.908 37.6361C112.246 38.1694 112.229 38.8751 112.247 39.6666V44.8125H109.931V35.2783Z" fill="#373534"/>
<path d="M118.026 40.0491C118.026 40.8753 118.305 41.6152 118.932 42.1659C119.419 42.5962 120.133 42.8887 120.777 42.8887C122.414 42.8887 123.633 41.6325 123.633 40.0321C123.633 38.5175 122.431 37.2095 120.864 37.2095C119.245 37.2095 118.026 38.4658 118.026 40.0491ZM115.851 35.282H117.975V36.521C118.724 35.4713 119.802 34.9722 121.108 34.9722C122.518 34.9722 123.615 35.4196 124.607 36.521C125.495 37.4334 125.948 38.7068 125.948 40.0491C125.948 42.7511 123.929 45.1261 121.108 45.1261C119.89 45.1261 118.949 44.7302 118.166 43.7837V48H115.851V35.282Z" fill="#373534"/>
<path d="M130.043 38.0838C129.503 38.6175 129.242 39.3056 129.242 40.0628C129.242 41.5944 130.444 42.8853 132.028 42.8853C133.664 42.8853 134.866 41.6634 134.866 40.0628C134.866 38.497 133.63 37.2061 132.028 37.2061C131.314 37.2061 130.53 37.5676 130.043 38.0838ZM137.181 40.0628C137.181 42.8853 134.866 45.1226 132.028 45.1226C129.242 45.1226 126.926 42.8338 126.926 40.0628C126.926 37.2061 129.242 34.9688 132.132 34.9688C134.971 34.9688 137.181 37.2922 137.181 40.0628Z" fill="#373534"/>
<path d="M138.485 35.2783H140.592V36.1388C141.131 35.3298 141.741 34.9685 142.699 34.9685H142.873V37.1885C142.403 37.1885 141.846 37.3434 141.463 37.6361C140.801 38.1694 140.784 38.8751 140.801 39.6666V44.8125H138.485V35.2783Z" fill="#373534"/>
<path d="M148.846 37.2061C147.14 37.1888 145.956 38.4624 145.956 40.1318C145.956 41.6978 147.245 42.9026 148.812 42.8853C150.483 42.9026 151.632 41.6634 151.632 40.0286C151.632 38.428 150.483 37.1888 148.846 37.2061ZM153.826 44.8128H151.701V43.522C150.97 44.503 149.612 45.1226 148.394 45.1226C146.896 45.1226 145.677 44.503 144.842 43.522C144.076 42.6099 143.641 41.371 143.641 40.0457C143.641 38.7204 143.988 37.6191 144.877 36.621C145.852 35.5025 147.053 34.9688 148.464 34.9688C149.787 34.9688 150.936 35.554 151.701 36.621V35.2786H153.826V44.8128Z" fill="#373534"/>
<path d="M155.896 37.309H154.765V35.2783H155.896V32.0945H158.212V35.2783H159.604V37.309H158.212V44.8125H155.896V37.309Z" fill="#373534"/>
<path d="M161.122 35.2797H163.438V44.8139H161.122V35.2797ZM161.122 32.096H163.438V34.1784H161.122V32.096Z" fill="#373534"/>
<path d="M167.999 38.0838C167.459 38.6175 167.199 39.3056 167.199 40.0628C167.199 41.5944 168.4 42.8853 169.984 42.8853C171.62 42.8853 172.822 41.6634 172.822 40.0628C172.822 38.497 171.586 37.2061 169.984 37.2061C169.27 37.2061 168.486 37.5676 167.999 38.0838ZM175.138 40.0628C175.138 42.8853 172.822 45.1226 169.984 45.1226C167.199 45.1226 164.882 42.8338 164.882 40.0628C164.882 37.2061 167.199 34.9688 170.088 34.9688C172.926 34.9688 175.138 37.2922 175.138 40.0628Z" fill="#373534"/>
<path d="M176.443 35.2783H178.584V36.156C179.193 35.3644 180.238 34.9685 181.248 34.9685C182.258 34.9685 183.302 35.4159 183.999 36.156C184.086 36.2419 184.173 36.3282 184.242 36.4313C184.991 37.4639 185.008 38.6514 185.008 39.8734V44.8125H182.693V40.3208C182.693 39.5807 182.693 38.634 182.293 37.9974C181.962 37.4983 181.352 37.2058 180.76 37.2058C180.134 37.2058 179.455 37.5327 179.142 38.0489C178.724 38.7031 178.758 39.7356 178.758 40.4928V44.8125H176.443V35.2783Z" fill="#373534"/>
<path d="M78.2573 47.7375L54.1714 1.14723H52.552L74.6273 47.7375H78.2573Z" fill="#00205C"/>
<path d="M83.4542 47.7375L59.368 1.14723H57.7487L79.8241 47.7375H83.4542Z" fill="#00205C"/>
<path d="M67.7986 47.7375L43.7126 1.14723H42.0933L64.1687 47.7375H67.7986Z" fill="#00205C"/>
<path d="M73.0552 47.7375L48.9692 1.14723H47.3499L69.4252 47.7375H73.0552Z" fill="#00205C"/>
</g>
<rect y="56" width="185" height="24" rx="4" fill="#00205C"/>
<path d="M59.1364 64.1307V62.3636H68.4205V64.1307H64.8239V74H62.733V64.1307H59.1364ZM69.2131 74V65.2727H71.2074V66.7273H71.2983C71.4574 66.2235 71.7301 65.8352 72.1165 65.5625C72.5066 65.286 72.9517 65.1477 73.4517 65.1477C73.5653 65.1477 73.6922 65.1534 73.8324 65.1648C73.9763 65.1723 74.0956 65.1856 74.1903 65.2045V67.0966C74.1032 67.0663 73.965 67.0398 73.7756 67.017C73.59 66.9905 73.41 66.9773 73.2358 66.9773C72.8608 66.9773 72.5237 67.0587 72.2244 67.2216C71.929 67.3807 71.696 67.6023 71.5256 67.8864C71.3551 68.1705 71.2699 68.4981 71.2699 68.8693V74H69.2131ZM77.9119 74.1761C77.3589 74.1761 76.8608 74.0777 76.4176 73.8807C75.9782 73.6799 75.6297 73.3845 75.3722 72.9943C75.1184 72.6042 74.9915 72.1231 74.9915 71.5511C74.9915 71.0587 75.0824 70.6515 75.2642 70.3295C75.446 70.0076 75.6941 69.75 76.0085 69.5568C76.3229 69.3636 76.6771 69.2178 77.071 69.1193C77.4688 69.017 77.8797 68.9432 78.304 68.8977C78.8153 68.8447 79.2301 68.7973 79.5483 68.7557C79.8665 68.7102 80.0975 68.642 80.2415 68.5511C80.3892 68.4564 80.4631 68.3106 80.4631 68.1136V68.0795C80.4631 67.6515 80.3362 67.3201 80.0824 67.0852C79.8286 66.8504 79.4631 66.733 78.9858 66.733C78.482 66.733 78.0824 66.8428 77.7869 67.0625C77.4953 67.2822 77.2983 67.5417 77.196 67.8409L75.2756 67.5682C75.4271 67.0379 75.6771 66.5947 76.0256 66.2386C76.3741 65.8788 76.8002 65.6098 77.304 65.4318C77.8078 65.25 78.3646 65.1591 78.9744 65.1591C79.3949 65.1591 79.8134 65.2083 80.2301 65.3068C80.6468 65.4053 81.0275 65.5682 81.3722 65.7955C81.7169 66.0189 81.9934 66.3239 82.2017 66.7102C82.4138 67.0966 82.5199 67.5795 82.5199 68.1591V74H80.5426V72.8011H80.4744C80.3494 73.0436 80.1733 73.2708 79.946 73.483C79.7225 73.6913 79.4403 73.8598 79.0994 73.9886C78.7623 74.1136 78.3665 74.1761 77.9119 74.1761ZM78.446 72.6648C78.8589 72.6648 79.2169 72.5833 79.5199 72.4205C79.8229 72.2538 80.0559 72.0341 80.2188 71.7614C80.3854 71.4886 80.4688 71.1913 80.4688 70.8693V69.8409C80.4044 69.8939 80.2945 69.9432 80.1392 69.9886C79.9877 70.0341 79.8172 70.0739 79.6278 70.108C79.4384 70.142 79.2509 70.1723 79.0653 70.1989C78.8797 70.2254 78.7188 70.2481 78.5824 70.267C78.2756 70.3087 78.0009 70.3769 77.7585 70.4716C77.5161 70.5663 77.3248 70.6989 77.1847 70.8693C77.0445 71.036 76.9744 71.2519 76.9744 71.517C76.9744 71.8958 77.1127 72.1818 77.3892 72.375C77.6657 72.5682 78.018 72.6648 78.446 72.6648ZM92.071 65.2727L88.9631 74H86.6903L83.5824 65.2727H85.7756L87.7812 71.7557H87.8722L89.8835 65.2727H92.071ZM97.0611 74.1705C96.1861 74.1705 95.4304 73.9886 94.794 73.625C94.1615 73.2576 93.6747 72.7386 93.3338 72.0682C92.9929 71.3939 92.8224 70.6004 92.8224 69.6875C92.8224 68.7898 92.9929 68.0019 93.3338 67.3239C93.6785 66.642 94.1596 66.1117 94.777 65.733C95.3944 65.3504 96.1198 65.1591 96.9531 65.1591C97.491 65.1591 97.9986 65.2462 98.4759 65.4205C98.9569 65.5909 99.3812 65.8561 99.7486 66.2159C100.12 66.5758 100.411 67.0341 100.624 67.5909C100.836 68.1439 100.942 68.803 100.942 69.5682V70.1989H93.7884V68.8125H98.9702C98.9664 68.4186 98.8812 68.0682 98.7145 67.7614C98.5478 67.4508 98.3149 67.2064 98.0156 67.0284C97.7202 66.8504 97.3755 66.7614 96.9815 66.7614C96.5611 66.7614 96.1918 66.8636 95.8736 67.0682C95.5554 67.2689 95.3073 67.5341 95.1293 67.8636C94.955 68.1894 94.866 68.5473 94.8622 68.9375V70.1477C94.8622 70.6553 94.955 71.0909 95.1406 71.4545C95.3262 71.8144 95.5857 72.0909 95.919 72.2841C96.2524 72.4735 96.6425 72.5682 97.0895 72.5682C97.3887 72.5682 97.6596 72.5265 97.902 72.4432C98.1444 72.3561 98.3546 72.2292 98.5327 72.0625C98.7107 71.8958 98.8452 71.6894 98.9361 71.4432L100.857 71.6591C100.735 72.1667 100.504 72.6098 100.163 72.9886C99.8262 73.3636 99.3944 73.6553 98.8679 73.8636C98.3414 74.0682 97.7391 74.1705 97.0611 74.1705ZM102.682 74V65.2727H104.676V66.7273H104.767C104.926 66.2235 105.199 65.8352 105.585 65.5625C105.975 65.286 106.42 65.1477 106.92 65.1477C107.034 65.1477 107.161 65.1534 107.301 65.1648C107.445 65.1723 107.564 65.1856 107.659 65.2045V67.0966C107.572 67.0663 107.434 67.0398 107.244 67.017C107.059 66.9905 106.879 66.9773 106.705 66.9773C106.33 66.9773 105.992 67.0587 105.693 67.2216C105.398 67.3807 105.165 67.6023 104.994 67.8864C104.824 68.1705 104.739 68.4981 104.739 68.8693V74H102.682ZM115.923 67.5795L114.048 67.7841C113.995 67.5947 113.902 67.4167 113.77 67.25C113.641 67.0833 113.467 66.9489 113.247 66.8466C113.027 66.7443 112.759 66.6932 112.44 66.6932C112.012 66.6932 111.652 66.786 111.361 66.9716C111.073 67.1572 110.931 67.3977 110.935 67.6932C110.931 67.947 111.024 68.1534 111.213 68.3125C111.406 68.4716 111.724 68.6023 112.168 68.7045L113.656 69.0227C114.482 69.2008 115.096 69.483 115.497 69.8693C115.902 70.2557 116.107 70.7614 116.111 71.3864C116.107 71.9356 115.946 72.4205 115.628 72.8409C115.313 73.2576 114.876 73.5833 114.315 73.8182C113.755 74.053 113.111 74.1705 112.384 74.1705C111.315 74.1705 110.455 73.947 109.804 73.5C109.152 73.0492 108.764 72.4223 108.639 71.6193L110.645 71.4261C110.736 71.8201 110.929 72.1174 111.224 72.3182C111.52 72.5189 111.904 72.6193 112.378 72.6193C112.866 72.6193 113.259 72.5189 113.554 72.3182C113.853 72.1174 114.003 71.8693 114.003 71.5739C114.003 71.3239 113.906 71.1174 113.713 70.9545C113.524 70.7917 113.228 70.6667 112.827 70.5795L111.338 70.267C110.501 70.0928 109.882 69.7992 109.48 69.3864C109.079 68.9697 108.88 68.4432 108.884 67.8068C108.88 67.2689 109.026 66.803 109.321 66.4091C109.62 66.0114 110.035 65.7045 110.565 65.4886C111.099 65.2689 111.715 65.1591 112.412 65.1591C113.435 65.1591 114.24 65.3769 114.827 65.8125C115.418 66.2481 115.783 66.8371 115.923 67.5795ZM121.67 74.1705C120.795 74.1705 120.04 73.9886 119.403 73.625C118.771 73.2576 118.284 72.7386 117.943 72.0682C117.602 71.3939 117.432 70.6004 117.432 69.6875C117.432 68.7898 117.602 68.0019 117.943 67.3239C118.288 66.642 118.769 66.1117 119.386 65.733C120.004 65.3504 120.729 65.1591 121.562 65.1591C122.1 65.1591 122.608 65.2462 123.085 65.4205C123.566 65.5909 123.991 65.8561 124.358 66.2159C124.729 66.5758 125.021 67.0341 125.233 67.5909C125.445 68.1439 125.551 68.803 125.551 69.5682V70.1989H118.398V68.8125H123.58C123.576 68.4186 123.491 68.0682 123.324 67.7614C123.157 67.4508 122.924 67.2064 122.625 67.0284C122.33 66.8504 121.985 66.7614 121.591 66.7614C121.17 66.7614 120.801 66.8636 120.483 67.0682C120.165 67.2689 119.917 67.5341 119.739 67.8636C119.564 68.1894 119.475 68.5473 119.472 68.9375V70.1477C119.472 70.6553 119.564 71.0909 119.75 71.4545C119.936 71.8144 120.195 72.0909 120.528 72.2841C120.862 72.4735 121.252 72.5682 121.699 72.5682C121.998 72.5682 122.269 72.5265 122.511 72.4432C122.754 72.3561 122.964 72.2292 123.142 72.0625C123.32 71.8958 123.455 71.6894 123.545 71.4432L125.466 71.6591C125.345 72.1667 125.114 72.6098 124.773 72.9886C124.436 73.3636 124.004 73.6553 123.477 73.8636C122.951 74.0682 122.348 74.1705 121.67 74.1705Z" fill="white"/>
<defs>
<clipPath id="clip0_563_2307">
<rect width="185.018" height="48" fill="white" transform="translate(-0.0090332)"/>
</clipPath>
</defs>
</svg>
